# AST/ASF file generated using VICON BodyLanguage
# -----------------------------------------------
:version 1.10
:name VICON
:units
  mass 1.0
  length 0.45
  angle deg
:documentation
   .ast/.asf automatically generated from VICON data using
   VICON BodyBuilder and BodyLanguage model FoxedUp or BRILLIANT.MOD
:root
   order TX TY TZ RX RY RZ
   axis XYZ
   position 0 0 0  
   orientation 0 0 0 
:bonedata
  begin
     id 1 
     name lhipjoint
     direction 0.643824 -0.71708 0.266994 
     length 2.52133 
     axis 0 0 0  XYZ
  end
  begin
     id 2 
     name lfemur
     direction 0.34202 -0.939693 0  
     length 7.51824  
     axis 0 0 20  XYZ
    dof rx ry rz
    limits (-160.0 20.0)
           (-70.0 70.0)
           (-60.0 70.0)
  end
  begin
     id 3 
     name ltibia
     direction 0.34202 -0.939693 0   
     length 7.3685   
     axis 0 0 20   XYZ
    dof rx
    limits (-10.0 170.0)
  end
  begin
     id 4 
     name lfoot
     direction 0.105419 -0.289636 0.951314   
     length 2.20972   
     axis -90 7.62852e-016 20   XYZ
    dof rx rz
    limits (-45.0 90.0)
           (-70.0 20.0)
  end
  begin
     id 5 
     name ltoes
     direction 1.53549e-011 -4.21833e-011 1   
     length 1.10139   
     axis -90 7.62852e-016 20   XYZ
    dof rx
    limits (-90.0 20.0)
  end
  begin
     id 6 
     name rhipjoint
     direction -0.608823 -0.743445 0.276811   
     length 2.43192  
     axis 0 0 0  XYZ 
  end
  begin
     id 7 
     name rfemur
     direction -0.34202 -0.939693 0   
     length 7.69715   
     axis 0 0 -20   XYZ
    dof rx ry rz
    limits (-160.0 20.0)
           (-70.0 70.0)
           (-70.0 60.0)
  end
  begin
     id 8 
     name rtibia
     direction -0.34202 -0.939693 0   
     length 7.44924   
     axis 0 0 -20   XYZ
    dof rx
    limits (-10.0 170.0)
 end
 begin
     id 9 
     name rfoot
     direction -0.103614 -0.284677 0.953007   
     length 2.22623  
     axis -90 -7.62852e-016 -20   XYZ
    dof rx rz
    limits (-45.0 90.0)
           (-20.0 70.0)
  end
  begin
     id 10 
     name rtoes
     direction -1.53537e-011 -4.22026e-011 1   
     length 1.11   
     axis -90 -7.62852e-016 -20   XYZ
    dof rx
    limits (-90.0 20.0)
  end
  begin
     id 11 
     name lowerback
     direction -0.0101212 0.99662 -0.0815298   
     length 2.08277   
     axis 0 0 0   XYZ
    dof rx ry rz
    limits (-20.0 45.0)
           (-30.0 30.0)
           (-30.0 30.0)
  end
  begin
     id 12 
     name upperback
     direction 0.024314 0.999591 -0.0150645   
     length 2.08524   
     axis 0 0 0   XYZ
    dof rx ry rz
    limits (-20.0 45.0)
           (-30.0 30.0)
           (-30.0 30.0)
  end
  begin
     id 13 
     name thorax
     direction 0.0285959 0.999323 0.0231357   
     length 2.09645   
     axis 0 0 0   XYZ
    dof rx ry rz
    limits (-20.0 45.0)
           (-30.0 30.0)
           (-30.0 30.0)
  end
  begin
     id 14 
     name lowerneck
     direction -0.065512 0.979301 0.191515   
     length 1.63798   
     axis 0 0 0   XYZ
    dof rx ry rz
    limits (-20.0 45.0)
           (-30.0 30.0)
           (-30.0 30.0)
  end
  begin
     id 15 
     name upperneck
     direction 0.0498479 0.98191 -0.182667   
     length 1.68731   
     axis 0 0 0   XYZ
    dof rx ry rz
    limits (-20.0 45.0)
           (-30.0 30.0)
           (-30.0 30.0)
  end
  begin
     id 16
     name head
     direction 0.0230358 0.996257 -0.0833175  
     length 1.69785  
     axis 0 0 0   XYZ
    dof rx ry rz
    limits (-20.0 45.0)
           (-30.0 30.0)
           (-30.0 30.0)
  end
  begin
     id 17 
     name lclavicle
     direction 0.967963 0.201165 -0.150269  
     length 3.63976  
     axis 0 0 0   XYZ
    dof ry rz
    limits (-20.0 10.0)
           (0.0 20.0)
  end
  begin
     id 18 
     name lhumerus
     direction 1 -4.48954e-011 -2.92837e-028   
     length 5.32462   
     axis 180 -30 -90   XYZ
    dof rx ry rz
    limits (-60.0 90.0)
           (-90.0 90.0)
           (-90.0 90.0)
  end
  begin
     id 19
     name lradius
     direction 1 -4.48958e-011 -6.39511e-027   
     length 3.48402   
     axis 180 -30 -90   XYZ
    dof rx
    limits (-10.0 170.0)
  end
  begin
     id 20
     name lwrist
     direction 1 -4.48975e-011 -1.1413e-026   
     length 1.74201   
     axis 6.88575e-015 90 90   XYZ
    dof ry
    limits (-180.0 0.0)
 end
  begin
     id 21 
     name lhand
     direction 1 -4.48899e-011 -2.28192e-026   
     length 0.572476   
     axis 1.45643e-014 90 90   XYZ
    dof rx rz
    limits (-90.0 90.0)
           (-45.0 45.0)
  end
  begin
     id 22 
     name lfingers
     direction 1 -4.49155e-011 -4.5684e-026   
     length 0.461545   
     axis 2.91283e-014 90 90   XYZ
    dof rx
    limits (0.0 90.0)
  end
  begin
     id 23
     name lthumb
     direction 0.707107 -6.34943e-011 0.707107   
     length 0.662688   
     axis -90 45 -2.25915e-014   XYZ
    dof rx rz
    limits (-45.0 45.0)
           (-45.0 45.0)
  end
  begin
     id 24 
     name rclavicle
     direction -0.964103 0.264019 -0.0282629   
     length 3.54491  
     axis 0 0 0   XYZ 
    dof ry rz
    limits (-10.0 20.0)
           (-20.0 0.0)
  end
  begin
     id 25 
     name rhumerus
     direction -1 -4.48964e-011 -2.45032e-027  
     length 5.33589   
     axis 180 30 90   XYZ
    dof rx ry rz
    limits (-90.0 60.0)
           (-90.0 90.0)
           (-90.0 90.0)
  end
  begin
     id 26 
     name rradius
     direction -1 -4.48987e-011 -1.55093e-027   
     length 3.64134   
     axis 180 30 90   XYZ
    dof rx
    limits (-10.0 170.0)
  end
  begin
     id 27 
     name rwrist
     direction -1 -4.4897e-011 -1.14128e-026   
     length 1.82067   
     axis 6.88575e-015 -90 -90   XYZ
    dof ry
    limits (-180.0 0.0)
  end
  begin
     id 28
     name rhand
     direction -1 -4.49021e-011 -2.28301e-026   
     length 0.734811   
     axis 1.45643e-014 -90 -90   XYZ
    dof rx rz
    limits (-90.0 90.0)
           (-45.0 45.0)
  end
  begin
     id 29
     name rfingers
     direction -1 -4.48862e-011 -4.56319e-026   
     length 0.592424   
     axis 2.91283e-014 -90 -90   XYZ
    dof rx
    limits (0.0 90.0)
  end
  begin
     id 30
     name rthumb
     direction -0.707107 -6.34978e-011 0.707107   
     length 0.850605   
     axis -90 -45 2.25915e-014   XYZ
    dof rx rz
    limits (-45.0 45.0)
           (-45.0 45.0)
  end
:hierarchy
  begin
    root lhipjoint rhipjoint lowerback
    lhipjoint lfemur
    lfemur ltibia
    ltibia lfoot
    lfoot ltoes
    rhipjoint rfemur
    rfemur rtibia
    rtibia rfoot
    rfoot rtoes
    lowerback upperback
    upperback thorax
    thorax lowerneck lclavicle rclavicle
    lowerneck upperneck
    upperneck head
    lclavicle lhumerus
    lhumerus lradius
    lradius lwrist
    lwrist lhand lthumb
    lhand lfingers
    rclavicle rhumerus
    rhumerus rradius
    rradius rwrist
    rwrist rhand rthumb
    rhand rfingers
  end

#!OML:ASF F:\VICON\USERDATA\INSTALL\rory3\rory3.ASF
:FULLY-SPECIFIED
:DEGREES
265
root 0.130564 17.9603 -0.402573 4.45981 10.1387 -2.03946
lowerback 4.921 0.745902 0.36145
upperback -0.802784 0.915284 -3.00203
thorax -3.53529 0.418626 -3.37931
lowerneck -24.0969 -15.1206 -15.056
upperneck 2.41993 -17.9462 19.1016
head 7.76473 -7.42716 5.93128
rclavicle 1.93815e-014 1.59028e-015
rhumerus 62.7695 -36.2665 -35.1388
rradius 38.3342
rwrist 26.862
rhand -56.9673 -14.3545
rfingers 7.12502
rthumb -29.2603 -42.0732
lclavicle 1.93815e-014 1.59028e-015
lhumerus -34.9719 10.4204 66.2405
lradius 35.55
lwrist -1.98316
lhand -13.951 24.7349
lfingers 7.12502
lthumb 12.1763 54.3605
rfemur -8.80348 2.54148 13.5281
rtibia 20.2602
rfoot -18.4319 -17.5069
rtoes 1.93936
lfemur -10.568 0.829046 -16.7057
ltibia 23.496
lfoot -14.5693 -0.56737
ltoes -16.7464
266
root 0.0926287 17.9605 -0.385983 4.46751 10.1249 -2.0017
lowerback 4.92615 0.654855 0.424053
upperback -0.821494 0.797177 -2.99973
thorax -3.56398 0.358056 -3.40356
lowerneck -24.0459 -14.9926 -14.8373
upperneck 2.22938 -17.8084 19.0748
head 7.65087 -7.37152 5.92325
rclavicle 2.17669e-014 9.54166e-015
rhumerus 63.2126 -37.1122 -36.1922
rradius 37.9946
rwrist 26.7048
rhand -56.9617 -14.3378
rfingers 7.12502
rthumb -29.2549 -42.0575
lclavicle 2.17669e-014 9.54166e-015
lhumerus -34.9029 10.497 66.0928
lradius 35.4409
lwrist -1.878
lhand -13.7969 24.7439
lfingers 7.12502
lthumb 12.3249 54.3606
rfemur -8.82622 2.52133 13.6172
rtibia 20.3453
rfoot -18.4364 -17.4747
rtoes 1.59502
lfemur -10.4667 0.404744 -16.6041
ltibia 23.4074
lfoot -14.5163 -0.101628
ltoes -17.0586
267
root 0.0543571 17.9612 -0.369 4.47688 10.1041 -1.93991
lowerback 4.83775 0.598244 0.523182
upperback -0.796117 0.727459 -3.05714
thorax -3.49038 0.321815 -3.51196
lowerneck -23.8534 -14.8945 -14.748
upperneck 1.89559 -17.7021 19.2484
head 7.51259 -7.33047 5.99909
rclavicle -2.08724e-014 -4.77083e-015
rhumerus 63.382 -38.0996 -36.9131
rradius 37.6744
rwrist 26.4325
rhand -56.8142 -13.9159
rfingers 7.12502
rthumb -29.1141 -41.66
lclavicle -2.08724e-014 -4.77083e-015
lhumerus -34.7848 10.3041 65.9747
lradius 35.3852
lwrist -1.71561
lhand -13.819 24.7682
lfingers 7.12502
lthumb 12.3036 54.3862
rfemur -8.83768 2.52824 13.6695
rtibia 20.4578
rfoot -18.509 -17.3488
rtoes 1.82269
lfemur -10.3648 0.235329 -16.5331
ltibia 23.3139
lfoot -14.4537 0.108489
ltoes -17.0937
268
root 0.0172344 17.9599 -0.354109 4.47689 10.126 -1.84544
lowerback 4.79609 0.545377 0.548894
upperback -0.758272 0.660191 -3.04412
thorax -3.43191 0.288921 -3.50651
lowerneck -23.9257 -14.9007 -14.6789
upperneck 1.9094 -17.7127 19.1842
head 7.51493 -7.33477 5.96304
rclavicle 1.54058e-014 1.90833e-014
rhumerus 63.6463 -39.052 -37.6513
rradius 37.3906
rwrist 26.4085
rhand -56.7291 -13.6829
rfingers 7.12502
rthumb -29.0328 -41.441
lclavicle 1.54058e-014 1.90833e-014
lhumerus -34.6984 10.2251 66.0116
lradius 35.3971
lwrist -1.84152
lhand -13.7705 24.8273
lfingers 7.12502
lthumb 12.3504 54.4425
rfemur -8.79646 2.41528 13.6793
rtibia 20.5587
rfoot -18.5612 -17.0187
rtoes 2.27074
lfemur -10.2754 0.150945 -16.5079
ltibia 23.2362
lfoot -14.4158 0.216417
ltoes -17.3228
269
root -0.0223125 17.9609 -0.336601 4.40152 10.1382 -1.8067
lowerback 4.89717 0.491339 0.492222
upperback -0.757506 0.586821 -2.93974
thorax -3.49425 0.253756 -3.36183
lowerneck -24.1834 -14.9237 -14.6223
upperneck 2.28181 -17.7471 18.9491
head 7.64404 -7.34056 5.8582
rclavicle 4.47266e-015 4.77083e-015
rhumerus 63.9341 -39.8254 -38.3313
rradius 37.0191
rwrist 26.3708
rhand -56.718 -14.3237
rfingers 7.12502
rthumb -29.0222 -42.0836
lclavicle 4.47266e-015 4.77083e-015
lhumerus -34.6997 10.3431 66.0524
lradius 35.3349
lwrist -2.04263
lhand -13.7154 24.6171
lfingers 7.12502
lthumb 12.4035 54.2291
rfemur -8.68797 2.3556 13.7628
rtibia 20.6483
rfoot -18.8038 -16.6768
rtoes 3.12653
lfemur -10.1405 0.0362254 -16.4058
ltibia 23.1951
lfoot -14.4014 0.322201
ltoes -17.921
270
root -0.0615415 17.9596 -0.31836 4.35254 10.0979 -1.84101
lowerback 4.88464 0.442848 0.486373
upperback -0.717474 0.526548 -2.82079
thorax -3.45039 0.225737 -3.22936
lowerneck -24.3197 -14.8752 -14.4593
upperneck 2.2514 -17.6784 18.7883
head 7.60802 -7.31155 5.79183
rclavicle -1.53064e-014 -1.27222e-014
rhumerus 64.2611 -40.6072 -39.0651
rradius 36.6637
rwrist 26.2378
rhand -56.7059 -14.629
rfingers 7.12502
rthumb -29.0106 -42.3909
lclavicle -1.53064e-014 -1.27222e-014
lhumerus -34.6567 10.3824 66.1623
lradius 35.3411
lwrist -1.90498
lhand -13.5262 24.5844
lfingers 7.12502
lthumb 12.5859 54.1853
rfemur -8.64021 2.2983 13.9204
rtibia 20.7267
rfoot -19.029 -16.3423
rtoes 4.16813
lfemur -10.0087 -0.154242 -16.2181
ltibia 23.1609
lfoot -14.4257 0.528188
ltoes -18.182
271
root -0.0985696 17.9576 -0.302194 4.3357 10.025 -1.90946
lowerback 4.87014 0.405918 0.511946
upperback -0.694524 0.48538 -2.63373
thorax -3.42197 0.20689 -3.04569
lowerneck -24.4134 -14.8897 -14.1519
upperneck 1.97625 -17.666 18.3771
head 7.44757 -7.33635 5.61502
rclavicle 3.48867e-014 7.95139e-016
rhumerus 64.5352 -41.3696 -39.6047
rradius 36.3793
rwrist 25.9735
rhand -56.9011 -14.6317
rfingers 7.12502
rthumb -29.197 -42.3614
lclavicle 3.48867e-014 7.95139e-016
lhumerus -34.6425 10.4626 66.391
lradius 35.3866
lwrist -1.72071
lhand -13.6701 24.3603
lfingers 7.12502
lthumb 12.4472 53.9697
rfemur -8.66205 2.05649 14.1141
rtibia 20.8093
rfoot -18.8746 -16.02
rtoes 3.96837
lfemur -9.90821 -0.387408 -16.0101
ltibia 23.1144
lfoot -14.383 0.842328
ltoes -18.2233
272
root -0.136475 17.9581 -0.286595 4.34457 10.0048 -1.83785
lowerback 4.95786 0.347125 0.316895
upperback -0.7411 0.40033 -2.41511
thorax -3.52679 0.169124 -2.70374
lowerneck -24.555 -14.9424 -13.82
upperneck 1.80732 -17.7038 17.827
head 7.31624 -7.38903 5.37832
rclavicle 1.11319e-014 2.06736e-014
rhumerus 64.5401 -42.0062 -39.758
rradius 36.1837
rwrist 25.4612
rhand -56.9425 -15.1256
rfingers 7.12502
rthumb -29.2366 -42.8484
lclavicle 1.11319e-014 2.06736e-014
lhumerus -34.7645 10.6589 66.627
lradius 35.4186
lwrist -1.73907
lhand -13.7703 24.0868
lfingers 7.12502
lthumb 12.3506 53.702
rfemur -8.69913 1.89002 14.1616
rtibia 20.9327
rfoot -18.8459 -15.7791
rtoes 3.71459
lfemur -9.80628 -0.730196 -15.9346
ltibia 23.0397
lfoot -14.3222 1.11245
ltoes -17.7923
273
root -0.174955 17.9583 -0.273513 4.33904 10.0287 -1.77363
lowerback 5.08873 0.275878 0.179023
upperback -0.824289 0.298408 -2.27452
thorax -3.69285 0.120817 -2.47437
lowerneck -24.5257 -14.9088 -13.6076
upperneck 1.66441 -17.6613 17.552
head 7.20479 -7.39384 5.27108
rclavicle -1.87852e-014 0
rhumerus 64.1363 -42.6046 -39.5812
rradius 35.9666
rwrist 24.5907
rhand -56.9029 -15.5101
rfingers 7.12502
rthumb -29.1987 -43.2395
lclavicle -1.87852e-014 0
lhumerus -34.9028 10.5722 66.8269
lradius 35.5121
lwrist -1.72538
lhand -13.7476 24.4764
lfingers 7.12502
lthumb 12.3725 54.0903
rfemur -8.74193 1.64496 14.2398
rtibia 21.089
rfoot -18.7558 -15.6382
rtoes 3.39113
lfemur -9.69035 -1.12419 -15.8547
ltibia 22.9383
lfoot -14.2762 1.47904
ltoes -17.8574
274
root -0.214597 17.9584 -0.259275 4.31646 9.99046 -1.82615
lowerback 5.18673 0.221699 0.173048
upperback -0.896975 0.228313 -2.13448
thorax -3.82689 0.086179 -2.32166
lowerneck -24.3176 -14.7829 -14.0108
upperneck 1.59887 -17.4539 17.9849
head 7.21363 -7.28181 5.51928
rclavicle -9.93923e-015 1.03368e-014
rhumerus 64.017 -43.1397 -39.8449
rradius 35.685
rwrist 23.8794
rhand -56.8197 -15.4401
rfingers 7.12502
rthumb -29.1193 -43.1833
lclavicle -9.93923e-015 1.03368e-014
lhumerus -34.9933 10.3719 67.0616
lradius 35.6909
lwrist -1.61834
lhand -13.6461 25.9905
lfingers 7.12502
lthumb 12.4703 55.5985
rfemur -8.81959 1.42096 14.4473
rtibia 21.2724
rfoot -18.7611 -15.4087
rtoes 3.58308
lfemur -9.56234 -1.39414 -15.6524
ltibia 22.794
lfoot -14.2262 1.85719
ltoes -18.2003
